<?xml version="1.0" encoding="UTF-8"?>
<!DOCTYPE svg PUBLIC "-//W3C//DTD SVG 1.1//EN" "http://www.w3.org/Graphics/SVG/1.1/DTD/svg11.dtd">
<svg xmlns="http://www.w3.org/2000/svg" version="1.1" width="211px" height="52px" style="shape-rendering:geometricPrecision; text-rendering:geometricPrecision; image-rendering:optimizeQuality; fill-rule:evenodd; clip-rule:evenodd" xmlns:xlink="http://www.w3.org/1999/xlink">
<g><path style="opacity:0.875" fill="#082a79" d="M 119.5,-0.5 C 121.5,-0.5 123.5,-0.5 125.5,-0.5C 122.631,2.17223 120.631,5.50557 119.5,9.5C 115.167,12 110.833,14.5 106.5,17C 104.129,18.4058 102.462,20.4058 101.5,23C 94.9206,22.8683 89.9206,19.8683 86.5,14C 80.19,11.5117 74.19,8.51166 68.5,5C 68.9981,3.84185 69.8315,3.00852 71,2.5C 78.5033,4.27867 85.67,6.94534 92.5,10.5C 100.779,4.85396 109.779,1.18729 119.5,-0.5 Z"/></g>
<g><path style="opacity:0.886" fill="#082a79" d="M 18.5,51.5 C 15.5,51.5 12.5,51.5 9.5,51.5C 3.85249,48.8632 0.519154,44.5299 -0.5,38.5C -0.5,38.1667 -0.5,37.8333 -0.5,37.5C 1.81048,26.7298 8.47714,22.5631 19.5,25C 20.6219,28.4085 20.7886,31.9085 20,35.5C 15.8001,32.4066 12.6335,33.24 10.5,38C 12.6818,42.7681 15.8484,43.6014 20,40.5C 20.9614,44.4919 20.4614,48.1585 18.5,51.5 Z"/></g>
<g><path style="opacity:0.936" fill="#082a79" d="M 43.5,51.5 C 40.1667,51.5 36.8333,51.5 33.5,51.5C 25.2878,47.7329 22.4545,41.3996 25,32.5C 30.8014,24.1265 38.3014,22.2932 47.5,27C 53.0769,32.8537 53.9102,39.3537 50,46.5C 48.0349,48.5503 45.8682,50.217 43.5,51.5 Z"/></g>
<g><path style="opacity:0.756" fill="#082a79" d="M 91.5,51.5 C 89.5,51.5 87.5,51.5 85.5,51.5C 85.3336,42.4938 85.5002,33.4938 86,24.5C 88.2625,33.4075 90.0959,42.4075 91.5,51.5 Z"/></g>
<g><path style="opacity:0.817" fill="#082a79" d="M 89.5,24.5 C 93.5546,24.1758 97.5546,24.5091 101.5,25.5C 102.681,29.0716 103.348,32.7383 103.5,36.5C 99.5,36.5 95.5,36.5 91.5,36.5C 91.2182,32.426 90.5515,28.426 89.5,24.5 Z"/></g>
<g><path style="opacity:0.686" fill="#082a79" d="M 110.5,51.5 C 110.167,51.5 109.833,51.5 109.5,51.5C 108.049,42.7914 106.382,34.1248 104.5,25.5C 106.396,24.5344 108.396,24.2011 110.5,24.5C 110.5,33.5 110.5,42.5 110.5,51.5 Z"/></g>
<g><path style="opacity:0.936" fill="#082a79" d="M 132.5,51.5 C 129.5,51.5 126.5,51.5 123.5,51.5C 115.481,48.2603 112.315,42.2603 114,33.5C 118.759,24.5805 125.926,22.0805 135.5,26C 145.103,35.7529 144.103,44.2529 132.5,51.5 Z"/></g>
<g><path style="opacity:0.902" fill="#082a79" d="M 57.5,25.5 C 63.1764,25.3339 68.8431,25.5006 74.5,26C 79.1549,28.8966 80.6549,33.0633 79,38.5C 78.5348,39.9308 77.7014,41.0975 76.5,42C 78.2907,44.414 79.9574,46.914 81.5,49.5C 77.878,50.6586 74.2113,50.8253 70.5,50C 68.2165,43.9086 67.2165,44.0753 67.5,50.5C 64.1667,50.5 60.8333,50.5 57.5,50.5C 57.5,42.1667 57.5,33.8333 57.5,25.5 Z M 67.5,32.5 C 69.332,33.1405 69.6653,34.1405 68.5,35.5C 67.6143,34.675 67.281,33.675 67.5,32.5 Z"/></g>
<g><path style="opacity:0.934" fill="#082a79" d="M 180.5,51.5 C 177.167,51.5 173.833,51.5 170.5,51.5C 169.504,42.1791 168.504,42.1791 167.5,51.5C 164.5,51.5 161.5,51.5 158.5,51.5C 157.5,42.1667 156.5,42.1667 155.5,51.5C 152.167,51.5 148.833,51.5 145.5,51.5C 147.312,43.603 148.812,35.603 150,27.5C 153.394,26.5442 156.894,26.2108 160.5,26.5C 162.167,38.5 163.833,38.5 165.5,26.5C 169.106,26.2108 172.606,26.5442 176,27.5C 177.395,35.5399 178.895,43.5399 180.5,51.5 Z"/></g>
<g><path style="opacity:0.923" fill="#082a79" d="M 210.5,49.5 C 210.5,50.1667 210.5,50.8333 210.5,51.5C 201.167,51.5 191.833,51.5 182.5,51.5C 186.817,42.8667 191.65,34.5334 197,26.5C 201.363,34.336 205.863,42.0027 210.5,49.5 Z"/></g>
<g><path style="opacity:0.826" fill="#082a79" d="M 106.5,51.5 C 102.5,51.5 98.5,51.5 94.5,51.5C 93.7255,47.186 93.0588,42.8526 92.5,38.5C 96.5,38.5 100.5,38.5 104.5,38.5C 105.059,42.8526 105.725,47.186 106.5,51.5 Z"/></g>
</svg>
